<?xml version="1.0" encoding="UTF-8" standalone="no"?>
<svg
   xmlns:dc="http://purl.org/dc/elements/1.1/"
   xmlns:cc="http://creativecommons.org/ns#"
   xmlns:rdf="http://www.w3.org/1999/02/22-rdf-syntax-ns#"
   xmlns:svg="http://www.w3.org/2000/svg"
   xmlns="http://www.w3.org/2000/svg"
   xmlns:sodipodi="http://sodipodi.sourceforge.net/DTD/sodipodi-0.dtd"
   xmlns:inkscape="http://www.inkscape.org/namespaces/inkscape"
   inkscape:version="1.0 (4035a4fb49, 2020-05-01)"
   sodipodi:docname="International_Olympic_Committee_logo_2021.svg"
   version="1.1"
   viewBox="0 0 364.09 84"
   id="Lockup">
  <metadata
     id="metadata74">
    <rdf:RDF>
      <cc:Work
         rdf:about="">
        <dc:format>image/svg+xml</dc:format>
        <dc:type
           rdf:resource="http://purl.org/dc/dcmitype/StillImage" />
      </cc:Work>
    </rdf:RDF>
  </metadata>
  <sodipodi:namedview
     inkscape:current-layer="Olympic_rings"
     inkscape:window-maximized="1"
     inkscape:window-y="-9"
     inkscape:window-x="1911"
     inkscape:cy="25.409318"
     inkscape:cx="137.70204"
     inkscape:zoom="2.3810402"
     showgrid="false"
     id="namedview72"
     inkscape:window-height="1001"
     inkscape:window-width="1920"
     inkscape:pageshadow="2"
     inkscape:pageopacity="0"
     guidetolerance="10"
     gridtolerance="10"
     objecttolerance="10"
     borderopacity="1"
     bordercolor="#666666"
     pagecolor="#ffffff" />
  <defs
     id="defs4">
    <style
	type="text/css"
       id="style2">.cls-1{fill:#f0282d;}.cls-2{fill:#00a651;}.cls-3{fill:#ffb114;}.cls-4{fill:#0078d0;}</style>
  </defs>
  <g
     inkscape:label="Lockup-2"
     id="Lockup-2">
    <path
       id="path6"
       transform="translate(-238.69,-262.78)"
       d="m 451,283.27 v -20 h 2.64 v 20 z" />
    <path
       id="path8"
       transform="translate(-238.69,-262.78)"
       d="m 458.22,283.27 v -13.8 h 2.46 v 1.86 a 5.15,5.15 0 0 1 4.23,-2.31 c 3.21,0 5.1,2 5.1,5.55 v 8.7 h -2.46 v -8.39 c 0,-2.6 -0.86,-3.92 -3,-3.92 a 3.77,3.77 0 0 0 -3.83,4 v 8.3 z" />
    <path
       id="path10"
       transform="translate(-238.69,-262.78)"
       d="m 474.84,279.35 v -7.84 h -2.6 v -2 h 2.6 v -4.55 h 2.44 v 4.55 h 2.89 v 2 h -2.89 v 7.58 c 0,1.6 0.8,2.12 2,2.12 a 6.53,6.53 0 0 0 1,-0.09 v 2.12 a 7.54,7.54 0 0 1 -1.6,0.17 c -2,0 -3.84,-1 -3.84,-4.06 z" />
    <path
       id="path12"
       transform="translate(-238.69,-262.78)"
       d="m 482.14,276.31 c 0,-4.23 2.78,-7.29 6.56,-7.29 4.12,0 6.38,2.89 6.38,7.32 v 0.49 h -10.45 c 0,3.15 1.86,4.95 4.24,4.95 1.69,0 3.29,-0.66 3.63,-2.78 h 2.5 c -0.31,2.44 -2.2,4.7 -6.12,4.7 -4.16,0 -6.74,-2.61 -6.74,-7.39 z m 10.3,-1.23 c 0,-2.46 -1.31,-4.12 -3.74,-4.12 -2.43,0 -3.81,1.81 -4,4.12 z" />
    <path
       id="path14"
       transform="translate(-238.69,-262.78)"
       d="m 498.34,283.27 v -13.8 h 2.46 v 2.29 a 4.56,4.56 0 0 1 4.32,-2.74 c 0.17,0 0.4,0 0.63,0 v 2.44 a 4.5,4.5 0 0 0 -0.77,-0.06 c -2.66,0 -4.18,1.49 -4.18,4.55 v 7.3 z" />
    <path
       id="path16"
       transform="translate(-238.69,-262.78)"
       d="m 508.19,283.27 v -13.8 h 2.46 v 1.86 a 5.15,5.15 0 0 1 4.23,-2.31 c 3.21,0 5.1,2 5.1,5.55 v 8.7 h -2.47 v -8.39 c 0,-2.6 -0.85,-3.92 -3,-3.92 a 3.77,3.77 0 0 0 -3.83,4 v 8.3 z" />
    <path
       id="path18"
       transform="translate(-238.69,-262.78)"
       d="m 523.13,279.49 c 0,-2.72 2.14,-3.92 4.57,-4.29 l 3,-0.46 c 1,-0.14 1.37,-0.6 1.37,-1.35 0,-1.54 -1.26,-2.43 -2.92,-2.43 -2.09,0 -3.12,1.12 -3.17,2.83 h -2.47 c 0.09,-2.51 2.06,-4.77 5.56,-4.77 3.5,0 5.35,2 5.35,5.2 v 9 h -2.35 v -1.86 c -0.66,1.43 -2.17,2.29 -4.26,2.29 -2.6,0.05 -4.68,-1.56 -4.68,-4.16 z m 9,-1.43 v -1.95 a 3,3 0 0 1 -1.57,0.55 l -2,0.34 c -1.63,0.29 -2.89,1 -2.89,2.49 a 2.31,2.31 0 0 0 2.52,2.29 3.68,3.68 0 0 0 3.92,-3.72 z" />
    <path
       id="path20"
       transform="translate(-238.69,-262.78)"
       d="m 539.27,279.35 v -7.84 h -2.61 v -2 h 2.61 v -4.55 h 2.43 v 4.55 h 2.89 v 2 h -2.89 v 7.58 c 0,1.6 0.8,2.12 2,2.12 a 6.53,6.53 0 0 0 1,-0.09 v 2.12 a 7.48,7.48 0 0 1 -1.6,0.17 c -2,0 -3.83,-1 -3.83,-4.06 z" />
    <path
       id="path22"
       transform="translate(-238.69,-262.78)"
       d="m 547.39,266.87 v -2.95 h 2.84 v 2.95 z m 0.2,16.4 v -13.8 h 2.47 v 13.8 z" />
    <path
       id="path24"
       transform="translate(-238.69,-262.78)"
       d="m 553.29,276.34 c 0,-4.29 2.8,-7.32 6.78,-7.32 3.98,0 6.78,3 6.78,7.32 0,4.32 -2.8,7.36 -6.78,7.36 -3.98,0 -6.78,-2.95 -6.78,-7.36 z m 11,0 c 0,-3.23 -1.66,-5.38 -4.24,-5.38 -2.58,0 -4.23,2.15 -4.23,5.38 0,3.23 1.6,5.44 4.23,5.44 2.63,0 4.26,-2.2 4.26,-5.44 z" />
    <path
       id="path26"
       transform="translate(-238.69,-262.78)"
       d="m 570.09,283.27 v -13.8 h 2.46 v 1.86 a 5.17,5.17 0 0 1 4.23,-2.31 c 3.21,0 5.1,2 5.1,5.55 v 8.7 h -2.46 v -8.39 c 0,-2.6 -0.86,-3.92 -3,-3.92 a 3.77,3.77 0 0 0 -3.83,4 v 8.3 z" />
    <path
       id="path28"
       transform="translate(-238.69,-262.78)"
       d="m 585,279.49 c 0,-2.72 2.14,-3.92 4.58,-4.29 l 3,-0.46 c 1,-0.14 1.37,-0.6 1.37,-1.35 0,-1.54 -1.25,-2.43 -2.91,-2.43 -2.09,0 -3.12,1.12 -3.18,2.83 h -2.46 c 0.08,-2.51 2.06,-4.77 5.55,-4.77 3.49,0 5.35,2 5.35,5.2 v 9 H 594 v -1.86 c -0.65,1.43 -2.17,2.29 -4.26,2.29 -2.62,0.05 -4.74,-1.56 -4.74,-4.16 z m 9,-1.43 v -1.95 a 3,3 0 0 1 -1.57,0.55 l -2,0.34 c -1.64,0.29 -2.89,1 -2.89,2.49 a 2.3,2.3 0 0 0 2.51,2.29 3.67,3.67 0 0 0 3.95,-3.72 z" />
    <path
       id="path30"
       transform="translate(-238.69,-262.78)"
       d="m 600.31,283.27 v -20 h 2.46 v 20 z" />
    <path
       id="path32"
       transform="translate(-238.69,-262.78)"
       d="m 449.8,304.79 c 0,-6.29 4.07,-10.47 9.47,-10.47 5.4,0 9.51,4.18 9.51,10.47 0,6.29 -4.13,10.45 -9.51,10.45 -5.38,0 -9.47,-4.15 -9.47,-10.45 z m 16.23,0 c 0,-5.12 -2.75,-8.27 -6.76,-8.27 -4.01,0 -6.75,3.15 -6.75,8.27 0,5.12 2.69,8.27 6.75,8.27 4.06,0 6.73,-3.15 6.73,-8.27 z" />
    <path
       id="path34"
       transform="translate(-238.69,-262.78)"
       d="m 472.15,314.81 v -20 h 2.47 v 20 z" />
    <path
       id="path36"
       transform="translate(-238.69,-262.78)"
       d="m 477.76,321.16 v -2.26 a 3.55,3.55 0 0 0 1.18,0.17 2.41,2.41 0 0 0 2.52,-1.89 l 1.05,-2.86 L 477,301 h 2.75 l 3.46,8.84 c 0.2,0.54 0.4,1.08 0.63,1.6 0.17,-0.52 0.37,-1 0.57,-1.63 l 3,-8.81 H 490 l -6.34,17 c -1,2.51 -2.49,3.34 -4.49,3.34 a 5.77,5.77 0 0 1 -1.41,-0.18 z" />
    <path
       id="path38"
       transform="translate(-238.69,-262.78)"
       d="M 492.42,314.81 V 301 h 2.46 v 1.86 a 4.67,4.67 0 0 1 4,-2.32 4.29,4.29 0 0 1 4.15,2.72 5.23,5.23 0 0 1 4.52,-2.72 c 2.75,0 4.81,1.74 4.81,5.52 v 8.73 H 510 v -8.24 c 0,-2.61 -0.8,-4.07 -2.92,-4.07 -2.12,0 -3.41,1.89 -3.41,4.1 v 8.21 h -2.46 v -8.16 c 0,-2.63 -0.8,-4.15 -2.83,-4.15 -2.03,0 -3.46,1.92 -3.46,4.21 v 8.1 z" />
    <path
       id="path40"
       transform="translate(-238.69,-262.78)"
       d="M 516.37,320.85 V 301 h 2.46 v 1.88 a 5.46,5.46 0 0 1 4.55,-2.34 c 4,0 6.36,3.12 6.36,7.32 0,4.38 -2.61,7.36 -6.41,7.36 a 5,5 0 0 1 -4.5,-2.35 v 8 z m 10.79,-13 c 0,-3.17 -1.66,-5.38 -4.18,-5.38 -2.52,0 -4.29,2.09 -4.29,5.38 0,3.29 1.74,5.44 4.29,5.44 2.55,0 4.18,-2.2 4.18,-5.41 z" />
    <path
       id="path42"
       transform="translate(-238.69,-262.78)"
       d="m 532.77,298.41 v -3 h 2.83 v 3 z m 0.2,16.4 V 301 h 2.46 v 13.79 z" />
    <path
       id="path44"
       transform="translate(-238.69,-262.78)"
       d="m 538.67,307.88 c 0,-4.35 3,-7.32 7,-7.32 3.26,0 5.72,2 6,5.09 h -2.52 a 3.42,3.42 0 0 0 -3.52,-3.15 c -2.63,0 -4.38,2.32 -4.38,5.38 0,3.29 1.75,5.44 4.41,5.44 a 3.41,3.41 0 0 0 3.66,-3.15 h 2.43 c -0.25,3 -2.43,5.07 -6.21,5.07 -3.78,0 -6.87,-2.46 -6.87,-7.36 z" />
    <path
       id="path46"
       transform="translate(-238.69,-262.78)"
       d="m 449.8,336.22 c 0,-6.24 4.15,-10.36 9.65,-10.36 4.83,0 8.15,3 8.52,6.93 h -2.83 a 5.42,5.42 0 0 0 -5.81,-4.73 c -4.06,0 -6.78,3.09 -6.78,8.16 0,5.07 2.83,8.38 6.78,8.38 a 5.6,5.6 0 0 0 5.95,-4.72 H 468 c -0.54,4.27 -3.86,6.9 -8.61,6.9 -5.72,0 -9.59,-4.01 -9.59,-10.56 z" />
    <path
       id="path48"
       transform="translate(-238.69,-262.78)"
       d="m 470.21,339.42 c 0,-4.29 2.8,-7.32 6.78,-7.32 3.98,0 6.78,3 6.78,7.32 0,4.32 -2.8,7.36 -6.78,7.36 -3.98,0 -6.78,-2.95 -6.78,-7.36 z m 11,0 c 0,-3.23 -1.66,-5.38 -4.24,-5.38 -2.58,0 -4.23,2.15 -4.23,5.38 0,3.23 1.6,5.44 4.23,5.44 2.63,0 4.26,-2.2 4.26,-5.44 z" />
    <path
       id="path50"
       transform="translate(-238.69,-262.78)"
       d="m 487,346.35 v -13.79 h 2.46 v 1.86 a 4.67,4.67 0 0 1 4,-2.32 4.3,4.3 0 0 1 4.15,2.72 5.23,5.23 0 0 1 4.52,-2.72 c 2.75,0 4.81,1.74 4.81,5.52 v 8.73 h -2.43 v -8.24 c 0,-2.61 -0.8,-4.07 -2.92,-4.07 -2.12,0 -3.4,1.89 -3.4,4.1 v 8.21 h -2.47 v -8.16 c 0,-2.63 -0.8,-4.15 -2.83,-4.15 -2.03,0 -3.46,1.92 -3.46,4.21 v 8.1 z" />
    <path
       id="path52"
       transform="translate(-238.69,-262.78)"
       d="m 511,346.35 v -13.79 h 2.46 v 1.86 a 4.68,4.68 0 0 1 4,-2.32 4.32,4.32 0 0 1 4.15,2.72 5.21,5.21 0 0 1 4.52,-2.72 c 2.75,0 4.81,1.74 4.81,5.52 v 8.73 h -2.44 v -8.24 c 0,-2.61 -0.8,-4.07 -2.91,-4.07 -2.11,0 -3.41,1.89 -3.41,4.1 v 8.21 h -2.46 v -8.16 c 0,-2.63 -0.8,-4.15 -2.83,-4.15 -2.03,0 -3.47,1.92 -3.47,4.21 v 8.1 z" />
    <path
       id="path54"
       transform="translate(-238.69,-262.78)"
       d="m 534.72,330 v -3 h 2.83 v 3 z m 0.2,16.4 v -13.84 h 2.46 v 13.79 z" />
    <path
       id="path56"
       transform="translate(-238.69,-262.78)"
       d="m 542.5,342.43 v -7.84 h -2.6 v -2 h 2.6 V 328 h 2.43 v 4.55 h 2.89 v 2 h -2.89 v 7.58 c 0,1.6 0.8,2.12 2,2.12 a 6.43,6.43 0 0 0 1,-0.09 v 2.12 a 6.89,6.89 0 0 1 -1.6,0.17 c -2,0.04 -3.83,-0.96 -3.83,-4.02 z" />
    <path
       id="path58"
       transform="translate(-238.69,-262.78)"
       d="m 551.83,342.43 v -7.84 h -2.6 v -2 h 2.6 V 328 h 2.43 v 4.55 h 2.89 v 2 h -2.89 v 7.58 c 0,1.6 0.8,2.12 2,2.12 a 6.43,6.43 0 0 0 1,-0.09 v 2.12 a 6.89,6.89 0 0 1 -1.6,0.17 c -2,0.04 -3.83,-0.96 -3.83,-4.02 z" />
    <path
       id="path60"
       transform="translate(-238.69,-262.78)"
       d="m 559.13,339.4 c 0,-4.24 2.77,-7.3 6.55,-7.3 4.12,0 6.38,2.89 6.38,7.32 v 0.49 h -10.44 c 0,3.15 1.86,4.95 4.23,4.95 1.69,0 3.29,-0.66 3.64,-2.77 H 572 c -0.32,2.43 -2.21,4.69 -6.13,4.69 -4.17,0 -6.74,-2.61 -6.74,-7.38 z m 10.3,-1.24 c 0,-2.46 -1.32,-4.12 -3.75,-4.12 -2.43,0 -3.81,1.81 -4,4.12 z" />
    <path
       id="path62"
       transform="translate(-238.69,-262.78)"
       d="m 574.47,339.4 c 0,-4.24 2.77,-7.3 6.55,-7.3 4.12,0 6.38,2.89 6.38,7.32 v 0.49 H 577 c 0,3.15 1.86,4.95 4.23,4.95 1.69,0 3.29,-0.66 3.64,-2.77 h 2.46 c -0.32,2.43 -2.21,4.69 -6.13,4.69 -4.2,0 -6.73,-2.61 -6.73,-7.38 z m 10.3,-1.24 c 0,-2.46 -1.32,-4.12 -3.75,-4.12 -2.43,0 -3.81,1.81 -4,4.12 z" />
    <g
       id="Olympic_rings">
      <path
         transform="translate(-238.69,-262.78)"
         d="m 421.08,291.58 a 28.8,28.8 0 0 1 -57.49,2.53 24.32,24.32 0 0 1 5,1.05 24.06,24.06 0 1 0 -0.21,-5.06 28.8,28.8 0 0 0 -4.77,-0.81 28.81,28.81 0 0 1 57.52,2.29 z m -57.6,0"
         class="cls-1"
         id="Red_ring" />
      <path
         transform="translate(-238.69,-262.78)"
         d="m 389.88,318 m -28.79,-24 a 24,24 0 0 1 23.73,20.42 24.37,24.37 0 0 0 4.94,1.05 28.79,28.79 0 0 0 -28.67,-26.27 c -0.85,0 -1.68,0 -2.49,0.11 0,0.75 0.08,1.51 0.08,2.29 0,0.78 0,1.7 -0.11,2.53 A 23.23,23.23 0 0 1 361.09,294 Z M 385,319.46 a 24,24 0 1 1 -31.42,-24.3 23.48,23.48 0 0 0 0.27,-3.58 c 0,-0.5 0,-1 0,-1.48 a 28.8,28.8 0 1 0 35.94,30.17 28.74,28.74 0 0 1 -4.79,-0.81 z"
         class="cls-2"
         id="Green_ring" />
      <path
         transform="translate(-238.69,-262.78)"
         d="m 301.08,291.58 m 28.8,-28.8 a 28.8,28.8 0 0 0 -28.71,26.51 28.86,28.86 0 0 1 4.76,0.81 24,24 0 1 1 31.42,24.3 24.73,24.73 0 0 0 -0.26,3.58 c 0,0.5 0,1 0,1.48 a 28.8,28.8 0 0 0 -7.25,-56.68 z m 0,52.8 a 24,24 0 0 1 -23.74,-20.42 24.32,24.32 0 0 0 -4.95,-1.05 28.8,28.8 0 0 0 28.69,26.27 c 0.84,0 1.67,0 2.49,-0.11 -0.05,-0.75 -0.09,-1.52 -0.09,-2.29 0,-0.77 0.05,-1.7 0.12,-2.53 a 23.36,23.36 0 0 1 -2.52,0.13 z"
         id="Black_ring" />
      <path
         transform="translate(-238.69,-262.78)"
         d="m 327.48,318 m -31.31,-23.87 c 0.07,-0.83 0.11,-1.68 0.11,-2.53 0,-0.85 0,-1.54 -0.08,-2.29 0.81,-0.07 1.64,-0.11 2.49,-0.11 a 28.81,28.81 0 0 1 28.69,26.27 24.42,24.42 0 0 1 -5,-1.05 24,24 0 0 0 -23.69,-20.42 23.23,23.23 0 0 0 -2.52,0.11 z m 31.22,26.16 a 28.8,28.8 0 1 1 -35.95,-30.17 c 0,0.49 0,1 0,1.48 a 23.48,23.48 0 0 1 -0.27,3.58 24,24 0 1 0 31.42,24.3 28.68,28.68 0 0 0 4.8,0.79 z"
         class="cls-3"
         id="Yellow_ring" />
      <path
         style="fill:#0078d0;fill-opacity:1"
         transform="translate(-238.69,-262.78)"
         d="m 296.28,291.58 a 28.8,28.8 0 1 0 -28.8,28.8 c 0.84,0 1.67,0 2.49,-0.11 -0.05,-0.75 -0.09,-1.52 -0.09,-2.29 0,-0.77 0.05,-1.7 0.11,-2.53 a 23,23 0 0 1 -2.51,0.13 24,24 0 1 1 7.52,-1.18 24.73,24.73 0 0 0 -0.26,3.58 c 0,0.5 0,1 0,1.48 a 28.81,28.81 0 0 0 21.54,-27.88 z"
         class="cls-4"
         id="Blue_ring" />
      <rect
         y="24.667395"
         x="54.401905"
         height="0.48258257"
         width="0.46402171"
         id="rect901"
         style="fill:#0078d0;fill-opacity:1;stroke:#e7ff00;stroke-width:0;stroke-linejoin:bevel;paint-order:markers fill stroke" />
    </g>
  </g>
</svg>
